<?xml version="1.0" encoding="UTF-8" standalone="no"?>
<!-- Created with Inkscape (http://www.inkscape.org/) -->

<svg
   width="131.53947mm"
   height="135.62888mm"
   viewBox="0 0 131.53947 135.62888"
   version="1.1"
   id="svg5"
   xml:space="preserve"
   inkscape:version="1.2.2 (732a01da63, 2022-12-09)"
   sodipodi:docname="A_logo.svg"
   inkscape:export-filename="A_logo.png"
   inkscape:export-xdpi="193.09792"
   inkscape:export-ydpi="193.09792"
   xmlns:inkscape="http://www.inkscape.org/namespaces/inkscape"
   xmlns:sodipodi="http://sodipodi.sourceforge.net/DTD/sodipodi-0.dtd"
   xmlns="http://www.w3.org/2000/svg"
   xmlns:svg="http://www.w3.org/2000/svg"><sodipodi:namedview
     id="namedview7"
     pagecolor="#565656"
     bordercolor="#000000"
     borderopacity="0.25"
     inkscape:showpageshadow="2"
     inkscape:pageopacity="0"
     inkscape:pagecheckerboard="0"
     inkscape:deskcolor="#d1d1d1"
     inkscape:document-units="mm"
     showgrid="false"
     inkscape:zoom="1.1893044"
     inkscape:cx="188.7658"
     inkscape:cy="453.20609"
     inkscape:window-width="3840"
     inkscape:window-height="2054"
     inkscape:window-x="-11"
     inkscape:window-y="-11"
     inkscape:window-maximized="1"
     inkscape:current-layer="layer1" /><defs
     id="defs2" /><g
     inkscape:label="Layer 1"
     inkscape:groupmode="layer"
     id="layer1"
     transform="translate(-38.219731,-47.913634)"><path
       style="fill:#ffffff;fill-opacity:1;stroke-width:0.264583"
       d="m 38.225356,183.23631 c -0.150781,-0.24397 2.696808,-7.56571 12.68123,-32.60611 l 6.435378,-16.13959 6.470597,-0.14216 c 5.492781,-0.12069 6.63771,-0.21561 7.576478,-0.62814 2.160968,-0.94963 4.732813,0.0271 5.839428,2.21756 1.099489,2.17642 0.517054,4.78973 -1.392026,6.24586 -1.32788,1.01282 -3.850973,1.22452 -5.347824,0.4487 -0.835131,-0.43284 -1.373772,-0.49785 -3.280182,-0.39586 l -2.280973,0.12203 -0.92316,2.28371 c -0.507741,1.25605 -2.891843,7.16528 -5.298004,13.13164 -2.406163,5.96635 -4.923131,12.19909 -5.593262,13.85054 -0.670131,1.65144 -1.218581,3.13972 -1.218774,3.30729 -2.57e-4,0.22059 1.191448,0.28312 4.318278,0.2266 l 4.318629,-0.0781 1.143079,-2.96464 c 1.220642,-3.1658 4.437306,-11.36389 7.469923,-19.03808 l 1.855864,-4.69635 h 4.995511 4.995513 l -0.545915,1.38906 c -0.55168,1.40373 -6.643915,16.50605 -11.067335,27.43531 -1.321795,3.26586 -2.551795,6.0326 -2.733334,6.14832 -0.444468,0.28333 -28.242422,0.16828 -28.419119,-0.11762 z m 36.374245,-43.71783 c 0.958303,-0.80636 1.226667,-1.74846 0.835605,-2.93339 -0.649327,-1.96748 -2.996139,-2.58091 -4.552564,-1.19 -0.757319,0.67679 -0.860803,0.92755 -0.837628,2.02971 0.0223,1.06074 0.157512,1.37463 0.864071,2.00594 1.107921,0.98993 2.576824,1.02485 3.690516,0.0877 z m 64.734109,40.26789 c -3.7721,-9.2486 -11.59964,-28.75695 -12.04367,-30.01607 l -0.48985,-1.38906 h 4.98354 4.98353 l 2.26844,5.75469 c 1.24764,3.16507 2.90977,7.42156 3.69362,9.45885 0.78386,2.03729 2.10708,5.46034 2.94049,7.60677 l 1.5153,3.9026 h 4.34537 c 2.38996,0 4.34538,-0.0753 4.34538,-0.16723 0,-0.22671 -12.41379,-31.27797 -12.83784,-32.11193 -0.32129,-0.63188 -0.43515,-0.65952 -2.54664,-0.6181 -1.40311,0.0275 -2.5965,0.20788 -3.26778,0.49385 -1.37992,0.58785 -3.72825,0.39834 -5.02952,-0.40589 -1.9516,-1.20615 -2.7523,-4.58571 -1.56722,-6.61485 1.14836,-1.96625 3.84955,-2.86366 5.82996,-1.93687 0.87891,0.41131 1.97715,0.50175 7.46591,0.61486 l 6.43542,0.13262 4.70892,11.77396 c 2.58991,6.47568 6.98857,17.41749 9.7748,24.31513 2.78623,6.89765 4.99802,12.60903 4.91509,12.69196 -0.0829,0.0829 -6.6174,0.17781 -14.52103,0.21083 l -14.37024,0.06 z M 137.148,139.14266 c 1.06658,-1.19371 1.01003,-2.44675 -0.16339,-3.62017 -1.88571,-1.88571 -4.65667,-0.76788 -4.65667,1.87854 0,1.01966 0.13863,1.36996 0.80639,2.03771 0.7276,0.72761 0.92708,0.79278 2.04193,0.66712 0.94873,-0.10693 1.40646,-0.33053 1.97174,-0.9632 z m -36.44914,42.89416 c -4.814946,-2.32779 -5.652868,-8.49539 -1.643867,-12.09983 0.72358,-0.65056 1.481317,-1.18284 1.683857,-1.18284 0.31199,0 0.36826,-3.76983 0.36825,-24.67239 v -24.67239 l -0.92667,-0.73939 c -2.920931,-2.33062 -2.762015,-7.02378 0.31305,-9.24519 0.9052,-0.6539 1.44207,-0.82311 2.95506,-0.93137 2.23184,-0.15968 3.80985,0.469 4.95908,1.97571 2.04351,2.67918 1.87847,5.56013 -0.44776,7.81661 l -1.2965,1.25761 v 24.47311 c 0,14.52939 0.0979,24.47311 0.24082,24.47311 0.55839,0 2.96014,2.19902 3.60666,3.30223 1.361,2.32237 1.14144,5.81204 -0.50805,8.07485 -1.28144,1.75791 -3.20217,2.71364 -5.71054,2.84149 -1.77899,0.0907 -2.16729,0.0181 -3.59339,-0.67132 z m 5.3295,-4.65725 c 0.73747,-0.73747 0.89958,-1.09983 0.89958,-2.01083 0,-0.911 -0.16211,-1.27336 -0.89958,-2.01084 -0.75617,-0.75617 -1.08915,-0.89958 -2.08868,-0.89958 -0.94702,0 -1.3564,0.15628 -2.01084,0.76761 -0.71453,0.66748 -0.82173,0.94626 -0.82173,2.13702 0,1.16078 0.11783,1.48724 0.7734,2.14281 0.63432,0.63432 0.99592,0.77339 2.01083,0.77339 1.0545,0 1.37043,-0.13298 2.13702,-0.89958 z m -0.83206,-60.91268 c 0.54828,-0.2104 1.20248,-1.47025 1.20248,-2.31575 0,-1.06001 -1.2104,-2.28239 -2.26003,-2.28239 -2.46493,0 -3.59739,2.1476 -2.08208,3.94844 0.54529,0.64804 0.8916,0.81406 1.69816,0.81406 0.55724,0 1.2059,-0.074 1.44147,-0.16436 z m 12.14042,54.14646 c -2.20068,-0.51356 -4.15801,-2.56775 -4.48087,-4.70261 -0.13872,-0.91725 -0.0575,-1.68729 0.30009,-2.84513 0.45406,-1.4702 0.49649,-2.97066 0.57422,-20.30677 l 0.0839,-18.71926 2.97307,-0.003 c 1.63519,-0.002 6.84261,-0.0723 11.57203,-0.15706 l 8.59896,-0.15413 0.84991,2.20757 c 0.46745,1.21417 0.92667,2.41594 1.02049,2.6706 0.16056,0.43579 -0.41463,0.46302 -9.77959,0.46302 l -9.95018,-10e-6 v 15.08125 c 0,14.35761 0.0229,15.08125 0.47722,15.08125 0.94823,0 3.16889,1.34302 3.84246,2.32386 1.54046,2.24321 1.48984,4.7187 -0.14258,6.97219 -1.1675,1.61168 -3.88566,2.56736 -5.93916,2.08814 z m 2.80225,-3.90972 c 1.12601,-1.04506 1.18905,-2.35887 0.16246,-3.38546 -0.95142,-0.95142 -2.32822,-0.88749 -3.3723,0.15659 -0.69642,0.69643 -0.78481,0.93927 -0.65003,1.78594 0.32347,2.0321 2.39193,2.80535 3.85987,1.44293 z m -33.582052,3.48113 c -2.596986,-1.1262 -3.881334,-4.01545 -3.052442,-6.86674 0.545385,-1.87605 1.780892,-3.11806 3.705145,-3.72462 l 1.462074,-0.46088 1.41e-4,-15.09908 1.37e-4,-15.09907 h -9.855866 c -11.358893,0 -10.28932,0.36814 -8.840205,-3.04271 l 0.843071,-1.98437 11.572194,-0.0793 11.572195,-0.0793 v 18.81171 c 0,15.88469 0.05948,18.92674 0.382273,19.55096 1.49172,2.88466 0.260633,6.58512 -2.684238,8.0684 -1.075693,0.54181 -3.860345,0.54455 -5.104479,0.005 z m 3.726783,-3.16307 c 1.403967,-0.72602 1.67323,-2.2794 0.613434,-3.5389 -0.542203,-0.64437 -0.893239,-0.81405 -1.68411,-0.81405 -1.51248,0 -2.393413,0.81622 -2.393413,2.21759 0,2.09772 1.613511,3.09233 3.464089,2.13536 z M 61.94878,122.07719 c 0,-0.2442 2.180519,-6.10257 3.799642,-10.20844 l 1.721556,-4.36563 4.647734,-0.0722 c 2.556253,-0.0397 4.647734,-0.0181 4.647734,0.0481 0,0.16307 -1.320559,3.72379 -2.462099,6.63874 -0.512894,1.30968 -1.427927,3.66117 -2.033407,5.22552 l -1.10087,2.84427 h -4.610145 c -2.535579,0 -4.610145,-0.0496 -4.610145,-0.1103 z m 73.80731,-1.94022 c -0.47001,-1.12778 -1.06433,-2.64583 -1.32071,-3.37343 -0.25638,-0.72761 -1.05932,-2.87073 -1.78431,-4.7625 -0.725,-1.89177 -1.39997,-3.70748 -1.49994,-4.0349 l -0.18176,-0.59531 h 4.59528 4.59528 l 0.56379,1.52135 c 0.31008,0.83675 1.41688,3.72401 2.45955,6.41615 1.04267,2.69213 2.05758,5.34127 2.25536,5.88698 l 0.35959,0.99218 h -4.59378 -4.59378 z m -12.68856,-3.01321 c -2.90517,-0.24734 -4.74995,-1.04513 -6.75598,-2.92168 -1.9454,-1.81982 -3.1025,-3.96152 -3.62315,-6.70614 -0.28466,-1.50056 -0.44021,-1.79959 -1.15575,-2.22177 -3.44331,-2.0316 -3.56794,-7.40689 -0.22094,-9.52949 2.93524,-1.86147 6.48812,-0.97181 7.81891,1.95791 0.86862,1.91227 0.53428,3.88453 -0.9531,5.6222 -0.91711,1.07143 -0.92151,1.0888 -0.64918,2.562 0.73806,3.99253 2.91206,6.16031 6.46393,6.44542 l 1.60176,0.12857 0.49366,2.01909 c 0.27151,1.11049 0.5439,2.15402 0.60529,2.31894 0.15187,0.40793 -1.21345,0.5303 -3.62545,0.32495 z m -6.41746,-14.98948 c 1.32428,-1.59755 0.16841,-4.02387 -1.91691,-4.02387 -1.19453,0 -2.51355,1.17862 -2.51355,2.246 0,2.40601 2.93385,3.58331 4.43046,1.77787 z m -35.386707,14.64228 c 0,-0.33478 0.268716,-1.83268 0.678706,-3.78334 0.102627,-0.48827 0.302622,-0.59557 1.112271,-0.59678 1.410473,-0.002 2.674374,-0.40495 4.092792,-1.30448 1.452729,-0.9213 2.157,-2.14815 2.756151,-4.80127 0.408919,-1.81075 0.405604,-1.87558 -0.124751,-2.44053 -0.835027,-0.88951 -1.624383,-2.84296 -1.624383,-4.01996 0,-3.81625 4.195069,-6.29037 7.642807,-4.50747 1.146199,0.59272 2.608614,2.39405 2.949133,3.63258 0.624755,2.27238 -0.671145,5.39953 -2.664814,6.4305 -0.622292,0.3218 -0.780312,0.63601 -1.027232,2.04256 -0.805066,4.58598 -4.086878,8.16356 -8.58802,9.36201 -1.904804,0.50715 -5.20266,0.4984 -5.20266,-0.0138 z m 13.532984,-14.60687 c 0.905928,-0.96432 0.846079,-2.58963 -0.126148,-3.4259 -2.038175,-1.75316 -5.079399,0.53356 -3.843213,2.88975 0.791898,1.50936 2.800233,1.78063 3.969361,0.53615 z M 70.553593,99.90254 c 0.734113,-2.48446 8.269192,-22.49283 13.455176,-35.72839 1.900539,-4.8505 2.96826,-6.90954 4.69787,-9.05957 3.267615,-4.06188 7.375329,-6.34897 12.668891,-7.05376 4.06618,-0.54137 8.96583,0.43916 12.35278,2.47206 1.9733,1.18442 4.91964,3.94026 6.14677,5.74936 1.58906,2.34269 2.48127,4.30043 5.34228,11.72237 1.47451,3.82512 3.20907,8.32398 3.85459,9.99747 0.64552,1.67349 2.30521,6.0788 3.6882,9.78958 1.38299,3.71078 2.98261,8.00208 3.5547,9.53622 0.5721,1.53413 1.04018,2.87359 1.04018,2.97656 0,0.10297 -2.1296,0.18722 -4.73243,0.18722 h -4.73242 l -2.70746,-6.81302 c -1.4891,-3.74716 -4.60564,-11.63505 -6.92563,-17.52864 -5.68591,-14.4442 -5.45318,-13.91996 -6.86552,-15.46527 -3.65248,-3.9964 -10.22907,-4.30907 -14.323534,-0.68098 -1.615898,1.43185 -2.269699,2.57119 -3.885716,6.77145 -0.724056,1.88192 -4.029448,10.20823 -7.345315,18.50292 l -6.028851,15.08125 -4.716147,0.0723 -4.716148,0.0723 z m 31.438217,-9.19605 c -3.60798,-0.76423 -6.284114,-3.60517 -6.98464,-7.41478 -0.838566,-4.56029 2.264925,-9.11866 6.85738,-10.07206 4.13902,-0.85925 8.11052,0.96274 10.02806,4.60055 0.64845,1.23018 0.72349,1.64688 0.72367,4.01834 1.9e-4,2.36254 -0.0791,2.80738 -0.74072,4.15465 -1.75228,3.56831 -5.91579,5.55378 -9.88375,4.7133 z"
       id="path954" /></g></svg>
